<svg width="1200" height="1200" viewBox="0 0 1200 1200" fill="none" xmlns="http://www.w3.org/2000/svg">
<path d="M536.764 936L286.809 285H414.585L672 936H536.764ZM21 936L278.415 285H406.191L156.236 936H21ZM142.246 792.78V680.25H551.686V792.78H142.246Z" fill="white"/>
<path d="M846.329 938C780.492 938 722.108 923.685 671.177 895.054C620.868 865.801 581.427 825.967 552.856 775.552C524.285 724.515 510 666.32 510 600.967C510 534.369 524.285 475.863 552.856 425.448C581.427 374.411 620.557 334.577 670.245 305.946C720.555 277.315 778.318 263 843.534 263C909.371 263 967.134 277.627 1016.82 306.88C1067.13 335.51 1106.57 375.344 1135.14 426.382C1163.71 476.797 1178 534.992 1178 600.967C1178 666.32 1163.71 724.515 1135.14 775.552C1107.19 825.967 1068.06 865.801 1017.75 895.054C968.066 923.685 910.924 938 846.329 938ZM846.329 821.299C886.08 821.299 920.862 811.963 950.675 793.29C981.109 773.996 1004.71 747.855 1021.48 714.867C1038.87 681.88 1047.57 643.913 1047.57 600.967C1047.57 557.398 1038.87 519.12 1021.48 486.133C1004.09 453.145 980.178 427.315 949.743 408.643C919.309 389.349 883.906 379.701 843.534 379.701C804.404 379.701 769.312 389.349 738.257 408.643C707.822 427.315 683.91 453.145 666.519 486.133C649.128 519.12 640.432 557.398 640.432 600.967C640.432 643.913 649.128 681.88 666.519 714.867C683.91 747.855 708.133 773.996 739.188 793.29C770.244 811.963 805.957 821.299 846.329 821.299Z" fill="url(#paint0_linear_614_2)"/>
<defs>
<linearGradient id="paint0_linear_614_2" x1="477.392" y1="600.033" x2="1211.07" y2="600.033" gradientUnits="userSpaceOnUse">
<stop stop-color="#00D2FF"/>
<stop offset="1" stop-color="#4D61FC"/>
</linearGradient>
</defs>
</svg>
