<svg width="500" height="500" viewBox="0 0 500 500" fill="none" xmlns="http://www.w3.org/2000/svg">
<path d="M223.911 389L120.244 119H173.238L280 389H223.911ZM10 389L116.762 119H169.756L66.0888 389H10ZM60.2865 329.6V282.929H230.1V329.6H60.2865Z" fill="black"/>
<path d="M352.466 390C325.165 390 300.955 384.062 279.835 372.185C258.974 360.051 242.619 343.527 230.771 322.614C218.924 301.443 213 277.303 213 250.194C213 222.568 218.924 198.299 230.771 177.386C242.619 156.215 258.845 139.691 279.449 127.815C300.311 115.938 324.264 110 351.307 110C378.608 110 402.56 116.067 423.165 128.202C444.026 140.078 460.381 156.602 472.229 177.773C484.076 198.686 490 222.826 490 250.194C490 277.303 484.076 301.443 472.229 322.614C460.639 343.527 444.413 360.051 423.551 372.185C402.947 384.062 379.252 390 352.466 390ZM352.466 341.591C368.949 341.591 383.372 337.718 395.735 329.972C408.355 321.969 418.142 311.125 425.096 297.441C432.308 283.757 435.914 268.008 435.914 250.194C435.914 232.121 432.308 216.242 425.096 202.559C417.885 188.875 407.969 178.16 395.349 170.415C382.729 162.411 368.048 158.409 351.307 158.409C335.081 158.409 320.529 162.411 307.651 170.415C295.031 178.16 285.115 188.875 277.904 202.559C270.692 216.242 267.086 232.121 267.086 250.194C267.086 268.008 270.692 283.757 277.904 297.441C285.115 311.125 295.16 321.969 308.038 329.972C320.915 337.718 335.725 341.591 352.466 341.591Z" fill="url(#paint0_linear_601_10)"/>
<defs>
<linearGradient id="paint0_linear_601_10" x1="199.478" y1="249.806" x2="503.715" y2="249.806" gradientUnits="userSpaceOnUse">
<stop stop-color="#00D2FF"/>
<stop offset="1" stop-color="#4D61FC"/>
</linearGradient>
</defs>
</svg>
